<svg version="1.2" xmlns="http://www.w3.org/2000/svg" viewBox="0 0 512 512" width="64" height="64">
	<title>Whatsapp</title>
	<style>
		.s0 { fill: #000000 } 
	</style>
	<path id="Path 0" fill-rule="evenodd" class="s0" d="m254.5 15.1c3.3-0.1 13 0.6 21.5 1.4 8.5 0.8 20.2 2.4 26 3.5 5.8 1.1 15.4 3.4 21.5 5.1 6.1 1.7 15.5 4.9 21 7.1 5.5 2.2 15.2 6.6 21.5 9.8 6.3 3.3 16.2 9 22 12.9 5.8 3.8 14.3 10 19 13.8 4.6 3.7 12.5 10.8 17.5 15.8 5 5 12.3 12.8 16.2 17.5 3.9 4.7 10.6 13.7 14.8 20 4.2 6.3 10.9 18 14.9 26 3.9 8 8.9 19.2 10.9 25 2.1 5.8 5.1 15.7 6.7 22 1.6 6.3 3.7 16.4 4.7 22.5 1.4 8.7 1.8 16.4 1.8 37-0.1 20-0.5 28.3-1.8 36-1 5.5-3.3 16-5.2 23.3-1.9 7.2-5.2 17.8-7.3 23.4-2.2 5.7-7 16.4-10.8 23.8-3.7 7.4-9.5 17.6-12.8 22.5-3.2 4.9-8.8 12.8-12.5 17.5-3.6 4.7-12.2 14.1-19.1 21-6.9 6.9-17.7 16.4-24 21.1-6.3 4.8-16.2 11.5-22 14.9-5.8 3.5-15 8.4-20.5 11-5.5 2.6-15.9 6.7-23 9.2-7.1 2.5-17.9 5.7-24 7.1-6.1 1.4-16.4 3.4-23 4.3-7.7 1.1-18.7 1.7-30.5 1.7-11.9 0-23-0.6-31-1.7-6.9-0.9-17.2-2.8-23-4.2-5.8-1.3-15.4-4.1-21.5-6.1-6.1-2-16.4-6.1-23-9-6.6-3-13.1-5.9-14.5-6.4-2-0.8-14.5 2.2-63 15.1-33.3 8.8-61.3 16.2-62.3 16.5-0.9 0.3-1.7 0.2-1.7-0.3 0-0.4 7.5-28.1 33.3-122.7l-5.6-11c-3.1-6.1-7.5-15.7-9.8-21.5-2.2-5.8-5.6-15.9-7.4-22.5-1.8-6.6-4.3-17.6-5.5-24.5-1.5-8.6-2.4-18.5-2.7-32-0.4-12-0.1-23.9 0.6-31 0.7-6.3 2.3-17.1 3.7-24 1.4-6.9 4.7-19 7.3-27 2.6-8 8-21 11.8-29 3.9-8 11-20.3 15.8-27.5 4.8-7.2 11.7-16.6 15.5-21 3.7-4.4 10.3-11.6 14.6-15.9 4.4-4.3 11.7-11.1 16.4-15 4.7-3.9 13.7-10.6 20-14.8 6.3-4.2 15.8-9.9 21-12.6 5.2-2.8 14.4-7.1 20.5-9.5 6.1-2.5 15.5-5.9 21-7.6 5.5-1.7 14.5-4 20-5.2 5.5-1.2 16.8-2.9 25-3.9 8.3-1 17.7-1.8 21-1.9zm-36.5 44.9c-5.8 1.2-15.7 3.9-22 6-6.3 2-16 5.9-21.5 8.4-5.5 2.6-13.8 7-18.5 9.8-4.7 2.8-12.8 8.3-18 12.2-5.2 3.9-14.2 11.8-20 17.6-5.8 5.8-13.7 14.8-17.6 20-3.9 5.2-9.1 12.9-11.7 17-2.5 4.1-6.8 12.2-9.6 18-2.7 5.8-6.5 15-8.4 20.5-1.9 5.5-4.6 15.2-6 21.5-1.4 6.3-3.1 15.9-3.6 21.2-0.6 5.4-1.1 15.4-1.1 22.3 0 6.9 0.7 17.8 1.5 24.2 0.9 6.5 2.7 16.5 4.2 22.3 1.4 5.8 4 14.6 5.8 19.5 1.8 4.9 5 12.8 7.2 17.5 2.2 4.7 6.6 12.8 9.8 18 3.2 5.2 5.8 10.2 5.7 11 0 0.8-4.3 17.2-9.6 36.5-5.3 19.2-9.5 35.1-9.3 35.2 0.1 0.2 16.9-4 37.2-9.3l37-9.7c8.5 5 15.9 8.8 22 11.8 6.1 2.9 15.1 6.7 20 8.5 4.9 1.7 13.3 4.2 18.5 5.5 5.2 1.3 14.2 3.1 20 3.9 6.2 1 17.4 1.6 27.5 1.6 10.1 0 21.3-0.6 27.5-1.6 5.8-0.8 14.8-2.6 20-3.9 5.2-1.3 13.6-3.8 18.5-5.5 4.9-1.7 14.4-5.8 21-9 6.6-3.2 16.5-8.9 22-12.5 5.5-3.7 13.6-9.7 17.9-13.4 4.4-3.6 12-10.9 17-16.2 5-5.3 11.7-13.2 14.8-17.5 3.1-4.4 8.4-12.4 11.7-17.9 3.4-5.5 8.4-15.4 11.2-22 2.8-6.6 6.4-16.5 8-22 1.7-5.5 3.9-15.2 5-21.5 1.3-7 2.3-18.1 2.6-28.5 0.4-12.6 0.1-20.4-1.1-30-0.9-7.2-3-18.4-4.7-25-1.6-6.6-5-17.2-7.5-23.5-2.5-6.3-6.7-15.3-9.2-20-2.5-4.7-7.6-13-11.3-18.5-3.7-5.5-10.5-14.3-15.1-19.5-4.6-5.2-12.7-13.2-17.9-17.8-5.1-4.6-14.3-11.6-20.4-15.7-6.1-4-15.5-9.6-21-12.3-5.5-2.8-12.9-6.2-16.5-7.6-3.6-1.5-11.2-4-17-5.7-5.8-1.6-15.4-3.9-21.5-5-7.7-1.4-16.6-2.1-29.5-2.4-10.2-0.2-21.9 0-26 0.5-4.1 0.5-12.2 1.9-18 3zm-28 84l3.3 3.2c2.4 2.4 5.1 7.8 9.7 18.8 3.5 8.5 8.3 20.1 10.7 25.7 2.3 5.7 4.3 11.2 4.3 12.3 0 1.1-0.7 3.5-1.6 5.2-0.9 1.8-5.5 8.2-10.1 14.3-4.6 6.1-8.4 11.9-8.3 13 0 1.1 2.1 5.4 4.6 9.5 2.5 4.1 7.4 11.1 10.9 15.5 3.4 4.4 9.5 11.3 13.6 15.4 4.1 4.1 10.8 9.9 14.9 13 4.1 3.1 9.3 6.8 11.5 8.2 2.2 1.5 8.3 4.8 13.5 7.4 5.2 2.6 11.6 5.6 14.3 6.6 3.1 1.3 5.6 1.7 7.4 1.1 1.6-0.4 5.5-4 9.8-9.2 3.9-4.7 9.2-11.3 11.8-14.8 4.4-5.8 5-6.2 8.7-6.2 2.6 0 7.5 1.6 14 4.5 5.5 2.5 17.6 8.3 27 13 14.7 7.4 17.1 8.9 17.6 11.2 0.4 1.6 0.4 5.9 0.1 9.8-0.3 3.9-1.5 10.1-2.8 14-1.9 6.1-3 7.9-8.8 13.5-3.6 3.6-9.3 8.1-12.6 10-3.3 1.9-8.9 4.6-12.5 5.9-5.8 2.2-8.1 2.4-21 2.4-13 0-15.5-0.2-23.5-2.7-4.9-1.5-15.3-5.2-23-8.2-7.7-3-18.3-7.8-23.5-10.6-5.2-2.8-13.3-7.6-18-10.8-4.7-3.2-13.4-10.1-19.5-15.3-6.1-5.1-15.3-13.8-20.4-19.3-5.2-5.4-12.9-14.2-17.1-19.4-4.1-5.2-10.5-13.8-14.2-19-3.6-5.2-8.3-12.4-10.3-16-2-3.6-5-9.7-6.7-13.5-1.6-3.9-3.8-10.6-4.9-15-1.1-4.9-1.9-11.5-1.9-17 0-4.9 0.7-12.2 1.5-16 0.9-3.9 3.1-10.2 4.9-14 1.9-3.9 6.3-10.4 9.8-14.5 3.9-4.6 8.1-8.4 10.8-9.7 3.8-2 6.1-2.3 26-2.3z"/>
</svg>