<svg version="1.2" xmlns="http://www.w3.org/2000/svg" viewBox="0 0 512 512" width="64" height="64">
	<title>x</title>
	<style>
		.s0 { fill: #000000 } 
	</style>
	<path id="Path 0" fill-rule="evenodd" class="s0" d="m80.8 24c43.8 0 80.2 0.4 80.8 0.8 0.6 0.4 25.9 33.5 56.3 73.7 30.4 40.1 55.6 73 56 73 0.4 0 29.5-32.9 64.6-73 35.1-40.2 64.3-73.3 64.9-73.7 0.6-0.4 18.1-0.8 38.9-0.8 20.7 0 37.9 0.3 38.1 0.8 0.3 0.4-37.9 44.6-170.2 195.7l2.3 3c1.2 1.7 46.4 61.4 100.3 132.8 54 71.3 98.2 130.1 98.2 130.7 0 0.7-26.7 1-156 1l-2.4-2.7c-1.3-1.6-29.2-37.9-62-80.8-32.8-42.9-60-78.1-60.4-78.2-0.4-0.1-32.4 36.2-141.7 161.2l-38 0.2c-20.9 0.2-38.3-0.1-38.7-0.5-0.4-0.4 40-47.3 89.8-104.2 49.8-56.9 90.8-104.1 91-104.7 0.2-0.7-42.8-57.8-95.6-126.8-52.8-69-96-125.9-96-126.5 0-0.7 27.2-1 79.7-1zm153.8 231.8l141 184.3c33.8-0.1 42.4-0.5 42.2-1-0.1-0.5-63-84-139.7-185.5l-139.5-184.5c-40.9-0.1-45.6 0.2-45.3 1.2 0.1 0.7 63.7 84.2 141.3 185.5z"/>
</svg>